<?xml version="1.0" encoding="UTF-8" standalone="no"?>
<svg
   version="1.0"
   width="836px"
   height="673px"
   viewBox="0 0 836 673"
   preserveAspectRatio="xMidYMid meet"
   id="svg14"
   sodipodi:docname="logo.svg"
   inkscape:version="1.4.3 (0d15f75042, 2025-12-25)"
   xmlns:inkscape="http://www.inkscape.org/namespaces/inkscape"
   xmlns:sodipodi="http://sodipodi.sourceforge.net/DTD/sodipodi-0.dtd"
   xmlns="http://www.w3.org/2000/svg"
   xmlns:svg="http://www.w3.org/2000/svg">
  <defs
     id="defs14" />
  <sodipodi:namedview
     id="namedview14"
     pagecolor="#ffffff"
     bordercolor="#000000"
     borderopacity="0.25"
     inkscape:showpageshadow="2"
     inkscape:pageopacity="0.0"
     inkscape:pagecheckerboard="0"
     inkscape:deskcolor="#d1d1d1"
     inkscape:zoom="0.74645847"
     inkscape:cx="309.46129"
     inkscape:cy="359.69851"
     inkscape:window-width="1588"
     inkscape:window-height="888"
     inkscape:window-x="0"
     inkscape:window-y="0"
     inkscape:window-maximized="1"
     inkscape:current-layer="svg14" />
  <g
     fill="#ffffff"
     id="g3">
    <path
       d="M0 336.72 l0 -336.72 418 0 418 0 0 336.72 0 336.72 -418 0 -418 0 0 -336.72z m354.57 280.84 c25.11 -1.96 48.48 -6.60 75.76 -15.02 12.26 -3.85 37.16 -16.26 53.56 -26.78 26.78 -17.20 50.94 -39.26 69.45 -63.43 3.05 -3.99 5.44 -7.55 5.30 -7.91 -0.15 -0.29 -5.66 -6.17 -12.26 -13.06 l-12.05 -12.48 -4.21 5.66 c-22.50 30.04 -51.60 54.50 -84.54 70.97 -11.25 5.66 -18.07 8.35 -21.12 8.35 l-2.83 0 0 -73.08 0 -73.08 24.46 -24.53 c21.55 -21.55 24.75 -24.53 26.71 -24.53 1.96 0 3.92 1.74 14.95 12.92 21.26 21.55 101.16 102.98 199.42 203.19 l30.77 31.35 30.12 0 30.04 0 -2.69 -3.05 c-3.19 -3.63 -31.28 -32.15 -72.13 -73.51 -33.02 -33.31 -177.07 -179.46 -189.26 -192.02 -7.62 -7.76 -8.20 -8.56 -8.20 -11.18 0 -2.83 0.73 -3.56 32.15 -35.20 17.71 -17.78 65.24 -65.75 105.73 -106.68 40.49 -40.93 86.65 -87.52 102.61 -103.56 l29.10 -29.25 -29.83 0 -29.83 0 -28.96 29.25 c-40.35 40.64 -170.39 171.99 -209.29 211.32 -17.71 18 -47.68 48.19 -66.55 67.13 l-34.33 34.47 0 86.79 0 86.79 -6.31 0.87 c-3.56 0.51 -11.25 1.09 -17.20 1.31 l-10.89 0.44 -3.63 -4.06 c-2.03 -2.18 -8.13 -8.85 -13.50 -14.80 -16.76 -18.43 -38.17 -43.61 -54.94 -64.59 -9.65 -12.12 -11.10 -14.22 -11.10 -16.47 0 -2.54 0.07 -2.61 2.90 -2.61 1.74 0 5.37 1.09 9.22 2.83 19.67 8.64 44.92 13.86 66.84 13.86 l5.95 0 0 -6.53 0 -6.53 -9.58 0 c-48.62 0 -91.73 -23.08 -119.16 -63.72 -12.05 -17.78 -19.38 -37.30 -22.21 -59.14 -1.23 -9 -0.58 -38.82 1.02 -46.95 6.60 -34.69 23.73 -62.48 52.90 -85.85 5.88 -4.72 16.18 -11.03 24.82 -15.09 8.85 -4.28 23.66 -9.29 28.88 -9.80 2.03 -0.22 5.22 -0.87 7.04 -1.38 4.28 -1.31 17.85 -2.54 28.16 -2.54 l8.13 0 0 -6.39 0 -6.46 -11.97 -0.51 c-50.51 -2.03 -72.57 -2.10 -105.95 -0.36 -16.47 0.87 -44.70 3.19 -57.11 4.64 -4.93 0.65 -10.96 1.31 -13.43 1.60 l-4.57 0.44 0 -2.76 c0 -2.25 0.65 -3.56 3.41 -6.82 32.73 -38.61 80.99 -66.84 131.57 -77 18.36 -3.70 29.39 -4.72 51.16 -4.64 13.57 0.07 22.50 0.44 29.03 1.23 5.22 0.65 9.65 1.23 10.01 1.23 0.29 0 0.51 57.04 0.51 126.85 l0 126.78 22.50 -22.57 22.50 -22.64 0 -97.32 0 -97.32 3.12 0 c8.20 0 37.30 15.75 58.20 31.50 14.95 11.25 31.13 27.07 43.32 42.24 l6.68 8.35 6.97 -7.11 c3.77 -3.92 9.43 -9.72 12.48 -12.92 l5.59 -5.88 -4.35 -5.37 c-17.34 -21.19 -32.22 -35.56 -53.41 -51.45 -57.77 -43.40 -130.92 -61.97 -202.69 -51.60 -44.63 6.46 -91.36 26.05 -128.59 53.92 -50.29 37.59 -88.17 94.27 -103.92 155.66 -6.68 25.91 -10.01 57.33 -8.49 79.61 3.05 44.05 13.28 80.26 32.95 117.20 6.31 11.83 19.88 32.51 27.94 42.53 6.89 8.64 22.42 25.04 31.28 33.16 38.24 34.98 83.53 58.06 133.24 67.93 25.11 5.01 50.94 6.82 72.64 5.15z m322.72 -187.52 c-0.51 -0.94 -21.84 -24.89 -31.20 -35.12 l-4.21 -4.57 -2.47 4.43 c-1.31 2.47 -2.25 4.50 -2.18 4.64 0.15 0.07 4.72 3.63 10.09 7.84 21.41 16.84 30.12 23.73 30.33 23.73 0.15 0.07 -0.07 -0.36 -0.36 -0.94z m-66.40 -43.98 c5.30 -26.27 6.46 -51.89 3.41 -75.11 -1.09 -8.49 -5.22 -30.12 -5.81 -30.70 -0.15 -0.22 -6.39 6.02 -13.93 13.72 -7.47 7.76 -19.96 20.54 -27.72 28.37 l-14.15 14.30 3.63 3.99 c8.20 9.22 52.25 53.85 52.61 53.48 0.22 -0.22 1.16 -3.85 1.96 -8.06z m89.41 -42.74 c6.60 -0.44 13.93 -1.09 16.33 -1.52 2.39 -0.36 8.71 -1.23 13.93 -1.89 5.30 -0.73 9.51 -1.38 9.43 -1.52 -2.10 -2.03 -85.92 -7.69 -88.10 -5.88 -0.65 0.51 -0.94 2.83 -0.94 6.53 l0 5.81 18.72 -0.36 c10.23 -0.22 24.02 -0.73 30.62 -1.16z m-46.66 -70.54 c14.30 -14.88 24.17 -25.83 22.71 -24.96 -0.58 0.29 -5.15 3.56 -10.09 7.18 -4.86 3.63 -12.55 9.29 -17.05 12.48 -4.43 3.27 -9 6.75 -10.09 7.69 l-2.10 1.74 2.03 4.14 c1.16 2.25 2.32 4.06 2.61 3.99 0.29 -0.15 5.66 -5.59 11.97 -12.26z"
       id="path1" />
    <path
       d="M313.14 579.32 c-14.66 -1.38 -38.82 -6.39 -52.76 -10.81 -59.58 -19.16 -111.32 -63.72 -139.55 -120.18 -4.50 -9 -6.17 -13.14 -6.17 -15.09 0 -1.81 1.60 -6.46 4.79 -13.57 13.64 -30.91 28.01 -58.49 47.97 -92.53 5.44 -9.29 5.44 -9.29 8.13 -9.29 l2.76 0 -0.36 14.44 c-0.58 24.96 2.98 44.05 12.55 66.55 13.93 32.80 60.09 95.57 119.16 161.98 11.03 12.41 11.83 13.43 11.83 16.11 0 2.90 0 2.90 -2.69 2.76 -1.52 -0.07 -4.06 -0.22 -5.66 -0.36z"
       id="path2" />
    <path
       d="M103.92 404.43 c-7.18 -26.56 -9.87 -52.47 -8.27 -78.45 2.61 -42.67 14.15 -79.68 35.27 -113.72 l5.37 -8.71 11.54 -1.31 c42.16 -4.79 81.06 -7.55 108.93 -7.69 l8.85 -0.07 0 2.47 c0 2.32 -0.29 2.69 -5.52 5.52 -17.78 9.72 -35.99 25.33 -50.87 43.54 -16.47 20.10 -43.90 61.18 -62.05 92.89 -9.87 17.20 -23.08 42.60 -29.97 57.69 l-6.02 13.06 -2.90 0.22 -2.90 0.22 -1.45 -5.66z"
       id="path3" />
  </g>
  <g
     fill="#010101"
     id="g4">
    <path
       d="M316.77 619.67 c-65.24 -4.86 -122.71 -29.54 -170.25 -73 -8.85 -8.13 -24.38 -24.53 -31.28 -33.16 -16.33 -20.39 -34.18 -51.60 -42.82 -74.82 -18.14 -49.06 -22.79 -95.94 -14.37 -146.01 13.14 -78.08 60.23 -149.06 126.49 -190.71 41.07 -25.76 82.66 -39.77 130.12 -43.90 12.99 -1.16 42.16 -0.58 55.44 1.09 16.55 2.03 36.07 6.10 49.20 10.38 l5.95 1.89 0 21.55 c0 11.90 0.22 22.06 0.44 22.71 0.29 0.80 0.07 1.16 -0.73 1.16 -1.09 0 -1.16 8.42 -1.16 97.32 l0 97.32 -24.09 24.24 c-13.21 13.35 -24.31 24.24 -24.67 24.24 -0.29 0 -0.58 -57.77 -0.58 -128.45 0 -70.68 -0.22 -128.45 -0.51 -128.45 -0.36 0 -4.79 -0.58 -10.01 -1.16 -13.43 -1.74 -41 -1.74 -54.79 -0.07 -49.35 6.02 -92.09 24.82 -129.25 56.89 -9.94 8.64 -26.78 26.27 -26.78 28.08 0 0.29 0.87 0.36 2.03 0.15 6.82 -1.45 46.01 -5.01 68.72 -6.17 33.60 -1.81 59 -1.74 110.23 0.36 l12.05 0.51 0 8.64 0 8.56 -8.13 0 c-10.30 0 -23.88 1.23 -28.16 2.54 -1.81 0.51 -5.01 1.16 -7.04 1.38 -2.10 0.22 -7.84 1.67 -12.70 3.34 -24.82 8.27 -45.36 22.13 -62.63 42.24 -16.47 19.16 -26.56 40.13 -31.28 65.17 -1.60 8.20 -2.18 33.89 -1.09 42.53 2.90 21.92 10.23 41.36 22.28 59.22 27.43 40.64 70.54 63.72 119.16 63.72 l9.58 0 0 8.71 0 8.71 -8.13 0 c-14.51 0 -30.19 -1.96 -44.34 -5.44 -9.22 -2.32 -14.44 -4.14 -23.95 -8.13 -4.28 -1.81 -7.98 -3.12 -8.20 -2.90 -0.51 0.51 17.27 22.93 30.84 38.97 19.01 22.50 29.25 34.11 45.72 52.10 l6.24 6.82 8.35 -0.36 c4.57 -0.22 11.39 -0.80 15.09 -1.31 l6.68 -0.87 0 -86.79 0 -86.79 34.33 -34.47 c18.87 -18.94 48.84 -49.13 66.55 -67.13 38.90 -39.33 168.94 -170.68 209.29 -211.32 l28.96 -29.25 34.18 0 34.18 0 -31.28 31.42 c-17.13 17.20 -64.30 64.80 -104.79 105.73 -40.49 40.93 -88.03 88.90 -105.73 106.68 -17.71 17.78 -32.15 32.58 -32.15 33.02 0 0.36 3.70 4.43 8.20 9 12.19 12.55 156.24 158.71 189.26 192.02 56.17 56.75 78.30 79.54 78.30 80.41 0 0.29 -15.31 0.51 -33.96 0.51 l-34.04 0 -30.77 -31.35 c-98.33 -100.36 -178.16 -181.64 -199.49 -203.27 l-12.70 -12.92 -24.46 24.53 -24.53 24.53 0 70.97 c0 64.95 0.07 70.90 1.16 70.90 0.94 0 1.09 0.51 0.73 2.25 -0.22 1.23 -0.44 11.47 -0.44 22.71 l0 20.39 -6.39 1.67 c-39.26 10.23 -69.23 13.43 -102.11 10.96z m2.54 -42.74 c0 -0.36 -5.30 -6.68 -11.83 -13.93 -34.40 -38.68 -59.43 -69.67 -83.38 -103.27 -32 -44.85 -42.89 -67.93 -47.39 -100.51 -1.16 -8.42 -1.67 -34.69 -0.73 -37.66 3.77 -11.97 -29.32 46.59 -44.49 78.67 -2.83 6.02 -7.26 15.75 -9.94 21.70 -5.59 12.63 -5.81 9.80 2.47 26.20 27.87 55.01 79.75 99.28 138.54 118.22 13.93 4.43 38.10 9.43 52.76 10.81 1.60 0.15 3.12 0.29 3.48 0.36 0.29 0.07 0.51 -0.15 0.51 -0.58z m-204.28 -182.51 c6.89 -15.17 20.10 -40.49 29.97 -57.69 18.14 -31.71 45.57 -72.79 62.05 -92.89 14.95 -18.29 32.95 -33.67 51.09 -43.69 l5.66 -3.12 -3.85 -0.22 c-3.99 -0.22 -29.17 0.80 -51.31 2.03 -12.55 0.73 -34.40 2.83 -58.64 5.59 l-11.54 1.31 -5.37 8.71 c-20.90 33.67 -32.44 70.61 -35.20 112.63 -1.02 14.44 -0.15 32.15 2.25 47.68 2.25 14.44 6.89 33.31 8.13 32.95 0.44 -0.15 3.41 -6.17 6.75 -13.28z"
       id="path4" />
  </g>
  <g
     fill="#886b32"
     id="g11">
    <path
       d="M423.23 584.84 l0.22 -22.50 6.53 -2.76 c16.33 -6.89 32.44 -16.04 48.26 -27.58 17.56 -12.77 37.66 -33.02 50.58 -50.94 2.32 -3.12 4.72 -5.73 5.30 -5.73 0.58 0 7.40 6.53 15.09 14.51 l13.93 14.44 -6.46 8.56 c-8.42 11.18 -15.31 19.01 -25.91 29.39 -23.22 22.71 -46.81 38.97 -80.04 55.15 -7.40 3.63 -24.75 10.01 -27.07 10.01 -0.36 0 -0.51 -10.16 -0.44 -22.57z"
       id="path5" />
    <path
       d="M584.18 373.95 c-14.15 -14.51 -28.01 -28.88 -30.77 -31.79 l-4.93 -5.44 25.69 -26.27 c14.15 -14.51 27.43 -28.23 29.61 -30.48 5.37 -5.88 6.10 -5.66 7.91 2.32 8.35 35.41 8.71 70.68 1.09 107.40 -1.09 5.01 -2.10 9.43 -2.39 9.87 -0.22 0.51 -11.03 -10.09 -26.20 -25.62z"
       id="path8" />
    <path
       d="M525.11 191.95 c-19.30 -24.46 -42.67 -44.70 -70.10 -60.74 -13.14 -7.69 -28.88 -14.88 -30.84 -14.08 -0.94 0.36 -1.09 -2.61 -1.09 -22.79 0 -19.16 0.15 -23.22 1.02 -23.22 1.16 0 13.79 4.72 22.21 8.35 37.16 15.89 71.70 40.78 98.26 70.76 10.74 12.12 17.27 20.25 16.98 20.97 -0.29 0.94 -28.23 29.83 -28.81 29.83 -0.22 0 -3.63 -4.14 -7.62 -9.07z"
       id="path11"
       inkscape:label="path11" />
  </g>
  <g
     fill="#91733a"
     id="g14">
    <path
       id="path12"
       d="M 641.07031 386.08008 C 640.56031 386.08008 639.90914 386.81 639.61914 387.75 C 639.32914 388.62 637.8793 391.58961 636.2793 394.34961 C 634.7493 397.10961 633.59055 399.79047 633.81055 400.23047 C 633.95007 400.70483 635.15247 401.67965 636.54297 402.51367 C 637.58652 403.49258 639.17147 404.80855 640.92969 406.16992 L 640.92969 406.17969 C 642.80738 407.6382 644.51334 408.88174 645.6543 409.64844 C 646.73582 410.90251 648.26661 412.06752 649.70898 412.74805 C 651.94551 415.00099 660.26228 421.47233 679.90039 436.28906 C 687.74039 442.16906 694.18984 447.0293 694.33984 447.0293 C 695.56984 447.0993 685.34086 434.25961 674.38086 421.84961 C 673.01866 420.33801 671.8753 419.18976 670.93945 418.39844 C 669.0694 415.99432 665.8762 412.1842 662.61914 408.58008 C 649.12914 393.63008 641.94031 386.08008 641.07031 386.08008 z " />
    <path
       id="path13"
       d="M 649.78906 330.25977 C 649.05906 330.90977 648.76953 333.08906 648.76953 339.03906 L 648.7793 339.05078 L 648.7793 347.0293 L 669.67969 346.66992 C 691.30969 346.29992 711.34055 345.21047 718.81055 343.98047 C 721.20055 343.61047 729.83906 342.37906 738.03906 341.28906 C 739.2776 341.11833 740.41046 340.96213 741.44141 340.81836 C 741.63314 340.89832 741.89261 340.87178 742.24023 340.7793 C 742.89023 340.6293 745.5007 340.20047 747.9707 339.98047 C 754.1407 339.33047 755.3007 337.80039 750.2207 337.15039 C 748.1207 336.86039 745.13945 336.43094 743.68945 336.21094 L 740.92969 335.76953 L 740.92969 335.88281 C 739.49862 335.65451 737.44766 335.39625 734.55078 335.05078 C 707.19078 331.78078 651.74906 328.58977 649.78906 330.25977 z " />
    <path
       id="path14"
       d="M 688.69922 236.72461 C 686.65962 236.66058 669.96528 248.33025 662.26953 254.66211 C 661.57077 254.96332 660.91111 255.39922 660.5293 255.86914 C 660.36699 256.04187 660.28543 256.13675 660.17578 256.25781 C 659.81239 256.57935 658.72569 257.30279 658.45703 257.56641 C 656.26176 258.62495 651.21056 262.09053 644.99023 266.76953 C 641.87023 269.15953 637.95094 272.13914 636.21094 273.36914 L 633.01953 275.75977 L 636.7207 283.01953 L 636.7207 283 C 638.7607 286.99 640.63937 290.25977 640.85938 290.25977 C 641.07938 290.25977 647.96961 283.29047 656.09961 274.73047 L 670.90039 259.13086 L 670.90625 259.0332 C 672.72229 257.01123 676.13053 253.16225 679.9707 248.7793 C 688.6007 238.9093 690.06 236.88047 688.75 236.73047 C 688.73436 236.7279 688.71742 236.72518 688.69922 236.72461 z " />
  </g>
</svg>
